<svg width="1133" height="239" viewBox="0 0 1133 239" fill="none" xmlns="http://www.w3.org/2000/svg">
<g clip-path="url(#clip0_19_4)">
<rect width="1133" height="239" fill="white"/>
<path d="M254 202V11H287V147L388 11H422V202H388V66L287 202H254Z" fill="#192123"/>
<path fill-rule="evenodd" clip-rule="evenodd" d="M486 180H465V239H493V202H641V239H667V180H636V10H518C524.333 46.3333 508 159 486 180ZM609 180H518C534 155 548 58 545 33H609V180Z" fill="#192123"/>
<path d="M0 182V209H52V106L0 182Z" fill="#FB5D04"/>
<path d="M103 159L0 5H57L103 77L151 5H208V209H163V69L103 159Z" fill="#FB5D04"/>
<path d="M715 204V10H737V169L856 10H878V204H856V42L737 204H715Z" fill="#192123"/>
<path d="M1102.39 30.6073C1087.78 15.9927 1069.16 6.04009 1048.89 2.00794C1028.62 -2.02422 1007.6 0.0452343 988.51 7.95459C969.415 15.864 953.094 29.258 941.611 46.4429C930.129 63.6279 924 83.8319 924 104.5C924 125.168 930.129 145.372 941.611 162.557C953.094 179.742 969.415 193.136 988.51 201.045C1007.6 208.955 1028.62 211.024 1048.89 206.992C1069.16 202.96 1087.78 193.007 1102.39 178.393L1088.81 164.808C1076.88 176.735 1061.68 184.858 1045.14 188.149C1028.59 191.44 1011.45 189.751 995.862 183.296C980.278 176.84 966.957 165.909 957.586 151.883C948.214 137.858 943.212 121.368 943.212 104.5C943.212 87.6317 948.214 71.1422 957.586 57.1167C966.957 43.0912 980.277 32.1596 995.862 25.7044C1011.45 19.2492 1028.59 17.5602 1045.14 20.851C1061.68 24.1419 1076.88 32.2647 1088.81 44.1924L1102.39 30.6073Z" fill="#192123"/>
</g>
<defs>
<clipPath id="clip0_19_4">
<rect width="1133" height="239" fill="white"/>
</clipPath>
</defs>
</svg>
