<svg width="237" height="241" viewBox="0 0 237 241" fill="none" xmlns="http://www.w3.org/2000/svg">
<path d="M68.1854 156.78C66.3867 156.78 64.8247 156.449 63.4994 155.786C62.2214 155.123 61.2511 154.129 60.5884 152.804C59.9257 151.526 59.5944 149.988 59.5944 148.189V134.415C59.5944 132.474 59.2394 131.078 58.5294 130.226C57.8667 129.327 56.6361 128.853 54.8374 128.806C53.9381 128.759 53.2281 128.404 52.7074 127.741C52.1867 127.078 51.9264 126.274 51.9264 125.327C51.9264 124.38 52.1867 123.599 52.7074 122.984C53.2281 122.321 53.9381 121.966 54.8374 121.919C56.6361 121.824 57.8667 121.351 58.5294 120.499C59.2394 119.6 59.5944 118.203 59.5944 116.31V102.536C59.5944 99.7907 60.3281 97.6843 61.7954 96.217C63.3101 94.7023 65.4401 93.945 68.1854 93.945H73.2264C74.3151 93.945 75.1907 94.2763 75.8534 94.939C76.5634 95.5543 76.9184 96.3353 76.9184 97.282C76.9184 98.2287 76.6344 99.0333 76.0664 99.696C75.4984 100.311 74.7411 100.619 73.7944 100.619H71.3094C70.3627 100.619 69.6527 100.879 69.1794 101.4C68.7061 101.921 68.4694 102.702 68.4694 103.743V117.375C68.4694 118.842 68.1617 120.191 67.5464 121.422C66.9311 122.653 66.1027 123.647 65.0614 124.404C64.0674 125.161 62.9314 125.54 61.6534 125.54V125.256C62.9314 125.256 64.0674 125.635 65.0614 126.392C66.1027 127.102 66.9311 128.072 67.5464 129.303C68.1617 130.534 68.4694 131.883 68.4694 133.35V146.982C68.4694 148.023 68.7061 148.804 69.1794 149.325C69.6527 149.846 70.3627 150.106 71.3094 150.106H73.7944C74.7411 150.106 75.4984 150.414 76.0664 151.029C76.6344 151.692 76.9184 152.496 76.9184 153.443C76.9184 154.39 76.5634 155.171 75.8534 155.786C75.1907 156.449 74.3151 156.78 73.2264 156.78H68.1854ZM118.532 144.568C117.065 144.568 115.929 144.166 115.124 143.361C114.367 142.509 113.988 141.349 113.988 139.882V101.542H100.143C98.9125 101.542 97.9422 101.211 97.2322 100.548C96.5695 99.838 96.2382 98.8913 96.2382 97.708C96.2382 96.4773 96.5695 95.5543 97.2322 94.939C97.9422 94.2763 98.9125 93.945 100.143 93.945H136.921C138.152 93.945 139.099 94.2763 139.761 94.939C140.471 95.5543 140.826 96.4773 140.826 97.708C140.826 98.8913 140.471 99.838 139.761 100.548C139.099 101.211 138.152 101.542 136.921 101.542H123.076V139.882C123.076 141.349 122.698 142.509 121.94 143.361C121.183 144.166 120.047 144.568 118.532 144.568ZM163.8 156.78C162.759 156.78 161.883 156.449 161.173 155.786C160.463 155.171 160.108 154.39 160.108 153.443C160.108 152.496 160.392 151.692 160.96 151.029C161.528 150.414 162.286 150.106 163.232 150.106H165.717C166.664 150.106 167.374 149.846 167.847 149.325C168.321 148.804 168.557 148.023 168.557 146.982V133.35C168.557 131.883 168.865 130.534 169.48 129.303C170.096 128.072 170.924 127.078 171.965 126.321C173.007 125.564 174.143 125.185 175.373 125.185V125.469C174.143 125.469 173.007 125.114 171.965 124.404C170.924 123.647 170.096 122.653 169.48 121.422C168.865 120.191 168.557 118.842 168.557 117.375V103.743C168.557 102.702 168.321 101.921 167.847 101.4C167.374 100.879 166.664 100.619 165.717 100.619H163.232C162.286 100.619 161.528 100.311 160.96 99.696C160.392 99.0333 160.108 98.2287 160.108 97.282C160.108 96.3353 160.463 95.5543 161.173 94.939C161.883 94.2763 162.759 93.945 163.8 93.945H168.841C170.687 93.945 172.249 94.2763 173.527 94.939C174.805 95.6017 175.776 96.572 176.438 97.85C177.101 99.128 177.432 100.69 177.432 102.536V116.31C177.432 118.203 177.787 119.6 178.497 120.499C179.207 121.351 180.438 121.824 182.189 121.919C183.136 121.966 183.846 122.321 184.319 122.984C184.84 123.647 185.1 124.451 185.1 125.398C185.1 126.297 184.84 127.078 184.319 127.741C183.846 128.404 183.136 128.759 182.189 128.806C180.438 128.853 179.207 129.327 178.497 130.226C177.787 131.078 177.432 132.474 177.432 134.415V148.189C177.432 150.934 176.675 153.041 175.16 154.508C173.693 156.023 171.587 156.78 168.841 156.78H163.8Z" fill="black"/>
</svg>
